<mxfile host="app.diagrams.net" modified="2021-06-30T07:55:10.757Z" agent="5.0 (X11)" etag="-OndEEZ5x3pNMnsWk4K_" version="14.8.2" type="github">
  <diagram id="2fuQplXi8uLIMwfNDTmf" name="Page-1">
    <mxGraphModel dx="462" dy="698" grid="1" gridSize="10" guides="1" tooltips="1" connect="1" arrows="1" fold="1" page="1" pageScale="1" pageWidth="1169" pageHeight="827" math="0" shadow="0">
      <root>
        <mxCell id="0" />
        <mxCell id="1" parent="0" />
      </root>
    </mxGraphModel>
  </diagram>
</mxfile>
